<?xml version="1.0" encoding="iso-8859-1"?>
<!-- Generator: Adobe Illustrator 19.1.0, SVG Export Plug-In . SVG Version: 6.00 Build 0)  -->
<svg version="1.1" id="Capa_1" xmlns="http://www.w3.org/2000/svg" xmlns:xlink="http://www.w3.org/1999/xlink" x="0px" y="0px"
	 viewBox="0 0 67 67" style="enable-background:new 0 0 67 67;" xml:space="preserve">
<g>
	<g>
		<path d="M33.666,46.507c7.479,0,13.563-6.084,13.563-13.562c0-7.479-6.085-13.564-13.563-13.564
			c-7.479,0-13.563,6.085-13.563,13.564C20.103,40.423,26.187,46.507,33.666,46.507z M33.666,23.38c5.273,0,9.563,4.291,9.563,9.564
			c0,5.272-4.29,9.562-9.563,9.562s-9.563-4.29-9.563-9.562C24.103,27.67,28.393,23.38,33.666,23.38z"/>
		<path d="M4.349,41h5.013c0.489,2,1.123,2.938,1.894,4.344L7.69,48.881c-1.627,1.625-1.628,4.259,0,5.888l4.613,4.606
			c0.789,0.787,1.837,1.217,2.952,1.217c1.115,0,2.164-0.436,2.95-1.223l3.701-3.702c1.349,0.703,2.712,1.264,4.115,1.695L26,62.766
			C26,64.989,28.076,67,30.442,67h6.523C39.229,67,41,65.047,41,62.706v-5.359c1.709-0.47,3.006-1.081,4.312-1.827l3.87,3.848
			c0.789,0.787,1.839,1.221,2.957,1.221s2.168-0.434,2.955-1.221l4.621-4.613c1.626-1.629,1.627-4.277,0.002-5.902l-3.748-3.75
			l-0.09-0.06C56.576,43.728,57.156,42,57.611,41h5.447C65.306,41,67,39.047,67,36.613V30.09c0-2.4-1.694-4.09-3.941-4.09H57.77
			c-0.445-2-1.028-3.005-1.744-4.395l3.694-3.724c1.626-1.627,1.626-4.29-0.001-5.918l-4.613-4.62
			c-0.788-0.789-1.836-1.226-2.951-1.226c-1.113,0-2.162,0.432-2.951,1.22l-3.561,3.56c-1.449-0.784-3.016-1.443-4.636-1.948
			L41,4.057C41,1.71,39.266,0,36.966,0h-6.523C28.034,0,26,1.766,26,3.997v4.927c-1.29,0.428-2.9,1.034-4.435,1.814l-3.383-3.401
			c-0.788-0.789-1.834-1.222-2.945-1.222c-1.11,0-2.157,0.434-2.947,1.223L7.683,11.95c-1.625,1.627-1.624,4.275,0.003,5.903
			l3.392,3.45C10.252,22.775,9.62,24,9.15,26H4.349C1.991,26,0,27.808,0,30.09v6.523C0,38.887,2.032,41,4.349,41z M4.349,30h6.394
			c0.959,0,1.783-0.74,1.964-1.682c0.493-2.56,1.298-4.228,2.611-6.355c0.509-0.824,0.354-1.909-0.367-2.555l-4.436-4.376
			c-0.068-0.069-0.069-0.183-0.001-0.251l4.605-4.613c0.025-0.026,0.213-0.023,0.231-0.006l3.765,3.786l0.508,0.601
			c0.639,0.757,1.737,0.933,2.579,0.411c2.127-1.313,4.894-2.219,6.354-2.642C29.412,12.07,30,11.287,30,10.396V4.07
			c0.071-0.077,0.26-0.189,0.442-0.189l6.533-0.024C36.982,3.868,37,3.913,37,3.997v4.884c0,0.038,0.001,0.075,0.003,0.112
			l0.091,1.607c0.049,0.874,0.66,1.615,1.51,1.828c2.268,0.568,4.449,1.494,6.309,2.676c0.806,0.511,1.857,0.384,2.516-0.303
			l4.604-4.635c0.066-0.068,0.178-0.069,0.246,0l4.612,4.611c0.068,0.068,0.068,0.18,0.001,0.248l-3.823,3.823l-0.925,0.898
			c-0.665,0.646-0.799,1.664-0.324,2.46c1.139,1.906,1.967,4.025,2.462,6.182C54.488,29.295,55.297,30,56.229,30h6.743
			C62.986,30,63,29.998,63,30.09v6.523C63,36.735,62.977,37,62.954,37h-6.849c-0.915,0-1.713,0.562-1.938,1.448
			c-0.511,2.014-1.315,3.909-2.392,5.696c-0.423,0.701-0.375,1.576,0.123,2.229l0.971,1.268c0.054,0.071,0.112,0.135,0.176,0.197
			l3.843,3.844c0.067,0.067,0.065,0.177-0.001,0.244l-4.62,4.612c-0.067,0.067-0.187,0.071-0.261-0.005l-3.892-3.867l-1.134-1.088
			c-0.656-0.632-1.656-0.738-2.432-0.262c-1.959,1.203-3.293,1.967-5.93,2.48C37.679,53.979,37,54.803,37,55.76v6.946
			C37,62.818,36.969,63,36.984,63l0,0c-0.002,0-0.008,0-0.019,0h-6.523c-0.179,0-0.411-0.216-0.442-0.234l-0.001-4.777l0.08-2.048
			c0.038-0.959-0.611-1.815-1.545-2.032c-2.051-0.479-3.991-1.274-5.93-2.426c-0.317-0.189-0.67-0.283-1.021-0.283
			c-0.504,0-1.004,0.189-1.387,0.558l-4.821,4.782c-0.067,0.067-0.179,0.064-0.245-0.001l-4.611-4.612
			c-0.068-0.067-0.069-0.178,0-0.246l4.666-4.674c0.656-0.662,0.768-1.689,0.268-2.478c-1.205-1.901-2.096-3.906-2.646-6.082
			C12.58,37.559,11.781,37,10.866,37c-0.002,0-0.005,0-0.007,0l-6.511-0.057c-0.114,0-0.326-0.203-0.349-0.301l-0.002-6.456
			C4.023,30.104,4.209,30,4.349,30z"/>
	</g>
</g>
<g>
</g>
<g>
</g>
<g>
</g>
<g>
</g>
<g>
</g>
<g>
</g>
<g>
</g>
<g>
</g>
<g>
</g>
<g>
</g>
<g>
</g>
<g>
</g>
<g>
</g>
<g>
</g>
<g>
</g>
</svg>
