<svg height="485pt" viewBox="0 0 485 485" width="485pt" xmlns="http://www.w3.org/2000/svg"><path d="m88.480469 136.617188h9.179687c3.515625 0 6.683594 2.109374 8.050782 5.347656l91.589843 217.992187 47.859375-100.40625 44.730469 100.40625 88.816406-217.90625c1.335938-3.289062 4.535157-5.441406 8.078125-5.441406h9.738282c1.917968 0 3.476562-1.550781 3.476562-3.46875v-8.101563h-66.9375v8.101563c0 1.917969 1.558594 3.476563 3.476562 3.476563h15.472657c4.894531 0 8.269531 4.902343 6.53125 9.472656l-62.589844 161.542968-35.769531-84.058593 38.308594-81.925781c1.433593-3.066407 4.519531-5.027344 7.90625-5.027344h10.355468c1.929688 0 3.480469-1.5625 3.480469-3.480469v-8.097656h-62.242187v8.097656c0 1.917969 1.550781 3.480469 3.480468 3.480469h9.28125c5.046875 0 8.421875 5.171875 6.402344 9.785156l-24.800781 56.523438-24.285157-56.574219c-1.976562-4.609375 1.40625-9.746094 6.417969-9.746094 1.917969 0 3.480469-1.550781 3.480469-3.46875v-8.097656h-59.4375v8.097656c0 1.917969 1.558594 3.46875 3.480469 3.46875h6.390625c3.503906 0 6.660156 2.097656 8.03125 5.3125l41.097656 96.433594-32.519531 70.488281-64.308594-162.675781c-1.804687-4.578125 1.570313-9.550781 6.496094-9.550781h13.25c1.882812 0 3.425781-1.496094 3.476562-3.382813l.222657-8.195313h-79.148438v8.101563c0 1.917969 1.558594 3.476563 3.480469 3.476563zm0 0"/><path d="m0 0v485h485v-485zm455 455h-425v-425h425zm0 0"/></svg>